<svg id="Layer_5" enable-background="new 0 0 64 64" height="512" viewBox="0 0 64 64" width="512" fill="#fff" xmlns="http://www.w3.org/2000/svg"><g><path d="m62.055 10.079-8.793-8.265c-.559-.525-1.288-.814-2.054-.814h-27.208c-1.654 0-3 1.346-3 3v5h-.745l-9.915-5.409c-.709-.386-1.511-.591-2.319-.591h-.178c-2.437 0-4.459 1.809-4.794 4.155-1.19.398-2.049 1.523-2.049 2.845v6c0 1.322.859 2.447 2.049 2.845.015.104.05.2.072.302-1.224.378-2.121 1.507-2.121 2.853v6c0 1.654 1.346 3 3 3v4c-1.654 0-3 1.346-3 3v6c0 1.654 1.346 3 3 3v4c-1.654 0-3 1.346-3 3v6c0 1.654 1.346 3 3 3h26c1.654 0 3-1.346 3-3v-3h27c1.654 0 3-1.346 3-3v-41.735c0-.824-.344-1.62-.945-2.186zm-9.055-5.767 7.115 6.688h-6.115c-.552 0-1-.449-1-1zm-18 14.688v4h-2v-6h10v4h-2v-2zm-14-4v-4h25c.552 0 1 .449 1 1v2c0 .551-.448 1-1 1zm0 4h-4.412l3.667-2h.745zm-18-3v-6c0-.551.448-1 1-1h1v-1.158c0-1.567 1.275-2.842 2.843-2.842h.178c.475 0 .945.12 1.361.347l9.618 5.247v4.813l-9.619 5.247c-.415.226-.886.346-1.36.346h-.178c-1.568 0-2.843-1.275-2.843-2.842v-1.158h-1c-.552 0-1-.449-1-1zm0 12v-6c0-.533.422-.962.949-.99.883 1.201 2.293 1.99 3.894 1.99h.178c.809 0 1.61-.205 2.318-.591l2.583-1.409h8.078v8h-17c-.552 0-1-.449-1-1zm3 3h15v4h-15zm-3 13v-6c0-.551.448-1 1-1h17v8h-17c-.552 0-1-.449-1-1zm3 3h15v4h-15zm25 13c0 .551-.448 1-1 1h-26c-.552 0-1-.449-1-1v-6c0-.551.448-1 1-1h17v1c0 1.654 1.346 3 3 3h7zm29-5h-36c-.552 0-1-.449-1-1v-37h8v8h6v-4h2v2h6v-6h1c1.654 0 3-1.346 3-3v-2c0-1.654-1.346-3-3-3h-23v-5c0-.551.448-1 1-1h27v7c0 1.654 1.346 3 3 3h7v41c0 .551-.448 1-1 1z"/><path d="m5 55h2v4h-2z"/><path d="m9 55h2v4h-2z"/><path d="m5 39h2v4h-2z"/><path d="m9 39h2v4h-2z"/><path d="m5 23h2v4h-2z"/><path d="m9 23h2v4h-2z"/><path d="m5.651 16.728c.334 1.337 1.532 2.272 2.911 2.272h2.438v-12h-2.438c-1.379 0-2.576.935-2.91 2.272l-.379 1.515c-.181.722-.273 1.467-.273 2.213s.092 1.491.272 2.213zm1.561-5.456.379-1.515c.112-.445.511-.757.971-.757h.438v8h-.438c-.46 0-.858-.312-.971-.758l-.379-1.515c-.141-.563-.212-1.144-.212-1.727s.071-1.164.212-1.728z"/><path d="m33 5h2v2h-2z"/><path d="m25 5h2v2h-2z"/><path d="m29 5h2v2h-2z"/><path d="m39 35.979v5.021h6v-5.021c1.246-.939 2-2.416 2-3.979 0-2.757-2.243-5-5-5s-5 2.243-5 5c0 1.563.754 3.041 2 3.979zm3-6.979c1.654 0 3 1.346 3 3 0 1.068-.562 2.033-1.503 2.581l-.497.289v4.13h-2v-4.13l-.497-.289c-.941-.548-1.503-1.513-1.503-2.581 0-1.654 1.346-3 3-3z"/><path d="m25 43h34v2h-34z"/><path d="m25 47h34v2h-34z"/><path d="m25 51h12v2h-12z"/><path d="m39 51h2v2h-2z"/></g></svg>