<svg height="512pt" viewBox="0 0 512 512" width="512pt" xmlns="http://www.w3.org/2000/svg"><path d="m27.527344 177.671875h38.035156l85.085938 60.058594v-60.058594h333.324218c11.058594 0 20.019532-8.960937 20.019532-20.019531v-130.125c0-11.058594-8.960938-20.019532-20.019532-20.019532h-456.445312c-11.058594 0-20.019532 8.960938-20.019532 20.019532v130.125c0 11.058594 8.960938 20.019531 20.019532 20.019531zm0 0" fill="#faef93"/><path d="m130.628906 452.121094v59.878906h250.242188v-59.878906c0-29.617188-24.003906-53.621094-53.621094-53.621094h-40.21875v.890625c0 17.277344-14.003906 31.28125-31.28125 31.28125s-31.28125-14.003906-31.28125-31.28125v-.890625h-40.21875c-29.617188 0-53.621094 24.003906-53.621094 53.621094zm0 0" fill="#ed9c87"/><path d="m224.46875 354.847656v44.542969c0 17.277344 14.003906 31.28125 31.28125 31.28125s31.28125-14.003906 31.28125-31.28125v-44.542969zm0 0" fill="#ffe4c2"/><path d="m224.46875 398.953125c9.777344 3.519531 20.308594 5.441406 31.28125 5.441406s21.503906-1.921875 31.28125-5.441406v-44.105469h-62.5625zm0 0" fill="#f2d1a5"/><path d="m232.851562 268.011719h45.792969c9.847657 0 18.902344 5.394531 23.585938 14.058593l16.082031 29.734376c0 34.550781-28.011719 62.5625-62.5625 62.5625s-62.5625-28.011719-62.5625-62.5625l16.082031-29.734376c4.683594-8.664062 13.738281-14.058593 23.582031-14.058593zm0 0" fill="#ffe4c2"/><path d="m255.75 211.707031c34.550781 0 62.5625 28.007813 62.5625 62.5625v37.535157l-16.082031-29.734376c-4.683594-8.660156-13.738281-14.058593-23.585938-14.058593h-45.792969c-9.84375 0-18.898437 5.394531-23.582031 14.058593l-16.082031 29.734376v-37.535157c0-34.554687 28.011719-62.5625 62.5625-62.5625zm0 0" fill="#757575"/><path d="m115.613281 52.550781 12.371094 25.070313 27.667969 4.019531-20.019532 19.515625 4.726563 27.554688-24.746094-13.011719-24.746093 13.011719 4.726562-27.554688-20.019531-19.515625 27.664062-4.019531zm0 0" fill="#cfdbfa"/><path d="m260.753906 52.550781 12.375 25.070313 27.664063 4.019531-20.019531 19.515625 4.726562 27.554688-24.746094-13.011719-24.746094 13.011719 4.726563-27.554688-20.019531-19.515625 27.667968-4.019531zm0 0" fill="#cfdbfa"/><path d="m395.886719 52.550781 12.371093 25.070313 27.667969 4.019531-20.019531 19.515625 4.726562 27.554688-24.746093-13.011719-24.746094 13.011719 4.726563-27.554688-20.019532-19.515625 27.664063-4.019531zm0 0" fill="#cfdbfa"/><path d="m483.972656 147.644531h-363.355468v32.132813l-45.523438-32.132813h-47.566406c-11.058594 0-20.019532-8.964843-20.019532-20.019531v30.027344c0 11.058594 8.960938 20.019531 20.019532 20.019531h38.035156l85.085938 60.058594v-60.058594h333.324218c11.058594 0 20.019532-8.960937 20.019532-20.019531v-30.027344c0 11.054688-8.960938 20.019531-20.019532 20.019531zm0 0" fill="#eed60f"/><path d="m130.628906 481.96875h250.242188v30.03125h-250.242188zm0 0" fill="#e46a4a"/><path d="m353.734375 397.011719-6.511719 13.527343c15.882813 7.644532 26.140625 23.96875 26.140625 41.582032v59.878906h15.015625v-59.878906c0-23.347656-13.597656-44.976563-34.644531-55.109375zm0 0"/><path d="m337.46875 391.839844c-3.355469-.566406-6.792969-.851563-10.21875-.851563h-32.710938v-20.867187c18.839844-12.574219 31.277344-34.015625 31.277344-58.316406v-37.535157c0-12.929687-3.550781-25.566406-10.269531-36.539062l-12.804687 7.839843c5.273437 8.613282 8.0625 18.539063 8.0625 28.699219v7.871094l-1.972657-3.644531c-6.003906-11.097656-17.570312-17.992188-30.1875-17.992188h-45.792969c-12.617187 0-24.183593 6.894532-30.1875 17.992188l-1.96875 3.644531v-7.871094c0-30.359375 24.695313-55.054687 55.054688-55.054687 14.644531 0 28.429688 5.6875 38.8125 16.011718l10.585938-10.648437c-13.214844-13.140625-30.757813-20.378906-49.398438-20.378906-38.636719 0-70.070312 31.433593-70.070312 70.070312v37.535157c0 24.300781 12.441406 45.746093 31.28125 58.316406v20.867187h-32.710938c-33.707031 0-61.128906 27.421875-61.128906 61.132813v59.878906h15.015625v-59.878906c0-25.429688 20.683593-46.117188 46.113281-46.117188h33.289062c3.148438 18.246094 19.078126 32.175782 38.210938 32.175782s35.0625-13.929688 38.210938-32.175782h33.289062c2.59375 0 5.191406.214844 7.726562.644532zm-57.945312 7.550781c0 13.109375-10.664063 23.773437-23.773438 23.773437s-23.773438-10.664062-23.773438-23.773437v-21.675781c7.425782 2.6875 15.429688 4.15625 23.773438 4.15625s16.347656-1.46875 23.773438-4.15625zm-23.773438-32.53125c-29.75 0-54.046875-23.722656-55.007812-53.238281l15.132812-27.980469c3.375-6.242187 9.882812-10.121094 16.976562-10.121094h45.792969c7.097657 0 13.605469 3.878907 16.980469 10.121094l15.132812 27.976563c-.964843 29.519531-25.261718 53.242187-55.007812 53.242187zm0 0"/><path d="m328.320312 475.964844h15.015626v36.035156h-15.015626zm0 0"/><path d="m168.164062 475.964844h15.015626v36.035156h-15.015626zm0 0"/><path d="m132.972656 70.757812-17.359375-35.167968-17.359375 35.167968-38.8125 5.640626 28.085938 27.378906-6.628906 38.65625 34.714843-18.25 34.714844 18.25-6.628906-38.65625 28.085937-27.378906zm-2.585937 44.230469-14.773438-7.769531-14.773437 7.769531 2.820312-16.453125-11.953125-11.652344 16.519531-2.398437 7.386719-14.96875 7.386719 14.96875 16.519531 2.398437-11.953125 11.652344zm0 0"/><path d="m278.113281 70.757812-17.359375-35.171874-17.355468 35.171874-38.816407 5.640626 28.085938 27.378906-6.628907 38.65625 34.714844-18.25 34.71875 18.25-6.632812-38.660156 28.085937-27.375zm-2.582031 44.230469-14.777344-7.769531-14.773437 7.769531 2.820312-16.453125-11.953125-11.652344 16.519532-2.398437 7.386718-14.96875 7.386719 14.96875 16.519531 2.398437-11.953125 11.652344zm0 0"/><path d="m413.246094 70.757812-17.359375-35.171874-17.359375 35.171874-38.8125 5.640626 28.085937 27.375-6.628906 38.660156 34.714844-18.25 34.71875 18.25-6.632813-38.660156 28.085938-27.375zm-2.585938 44.230469-14.773437-7.769531-14.777344 7.769531 2.824219-16.453125-11.953125-11.652344 16.519531-2.398437 7.386719-14.96875 7.386719 14.96875 16.519531 2.398437-11.953125 11.652344zm0 0"/><path d="m483.972656 0h-92.191406v15.015625h92.191406c6.898438 0 12.511719 5.613281 12.511719 12.511719v130.125c0 6.902344-5.613281 12.515625-12.511719 12.515625h-340.832031v53.074219l-75.195313-53.074219h-40.417968c-6.898438 0-12.511719-5.613281-12.511719-12.515625v-65.390625h-15.015625v65.390625c0 15.179687 12.347656 27.527344 27.527344 27.527344h35.65625l94.972656 67.042968v-67.042968h325.816406c15.179688 0 27.527344-12.347657 27.527344-27.527344v-130.125c0-15.179688-12.347656-27.527344-27.527344-27.527344zm0 0"/><path d="m15.015625 27.527344c0-6.898438 5.613281-12.511719 12.511719-12.511719h349.242187v-15.015625h-349.242187c-15.179688 0-27.527344 12.347656-27.527344 27.527344v49.71875h15.015625zm0 0"/><g fill="#fff"><path d="m168.164062 452.121094h-15.015624c0-17.148438 13.953124-31.101563 31.101562-31.101563v15.011719c-8.871094 0-16.085938 7.21875-16.085938 16.089844zm0 0"/><path d="m480.46875 67.566406h-15.015625v-22.523437h-22.519531v-15.011719h37.535156zm0 0"/><path d="m67.566406 154.152344h-37.535156v-37.539063h15.011719v22.523438h22.523437zm0 0"/><path d="m293.285156 493.480469h-15.011718v-15.011719h15.011718zm-30.027344 0h-15.015624v-15.011719h15.015624zm-30.03125 0h-15.011718v-15.011719h15.011718zm0 0"/></g></svg>