<svg id="Layer_1" enable-background="new 0 0 512.014 512.014" height="512" viewBox="0 0 512.014 512.014" width="512" xmlns="http://www.w3.org/2000/svg"><g><g><path d="m51.225 261.627c-9.992-12.803 29.008-12.371 36.226-15.027 2.263-.833 4.505 16.215 3.93 18.557-1.016 4.139-2.938 9.11-6.616 13.933-13.549 17.766-38.201 16.822-40.521 16.698 23.089 24.636 38.66-1.854 49.026-4.111 20.095-4.375 30.986-17.678 37.901-14.628 3.38 1.491 2.575 24.047 2.589 32.643.026 15.277 2.463 28.481 10.592 53.924 2.891 9.048 10.44 25.253 25.421 57.295 9.215 19.709 17.057 36.027 29.658 55.947 16.878 26.68 6.915 27.535 9.008 27.636 16.629.798 34.614-37.097 41.662-67.405 8.296-35.675-1.166-49.639 12.593-68.326 11.209-15.222 20.723-8.173 40.864-23.53.761-.58 1.536-16.192 2.328-16.838 39.619-32.345 29.43-61.093 57.025-61.842 5.896-.16 13.021 1.755 14.829-1.348 3.221-5.53-16.767-16.04-15.981-32.682.367-7.768 5.101-13.347 6.778-15.329 2.748-3.247 6.875-6.646 28.268-12.654 15.85-4.451 38.546-21.44 40.421-19.044 2.764 3.531-.538 29.706 1.583 43.31 1.302 8.348 9.697 13.774 13.417 16.177 1.376.889-11.168-9.31-5.992-25.614 2.795-8.803 5.629-7.329 9.886-17.525 7.278-17.434.548-25.979 7.767-33.703 7.91-8.463 19.48-2.535 24.009-9.437 6.519-9.935 7.172-21.897-10.421-23.421-12.18-1.055-22.65 10.365-31.069 19.547-13.312 14.519-12.06 25.033-23.303 29.658-10.435 4.293-21.527-.254-23.768-1.172-17.445-7.15-20.019-24.472-27.779-23.768-8.473.769-5.073 21.39-18.372 32.59-10.591 8.918-53.741-15.078-109.609-33.435-3.702-1.216-11.105-3.805-12.71-9.437-2.055-7.209 7.867-11.403 7.768-18.873-.07-5.252 9.939-9.675 3.406-13.608-12.848-7.734-31.663-13.573-30.773-20.095.756-5.542 16.304-4.734 19.065-13.481 2.094-6.635-5.852-10.089-5.704-18.582.249-14.262 22.924-19.76 21.183-28.187-1.397-6.762-17.689-11.398-31.014-9.853-12.521 1.453-15.136 7.518-23.334 6-10.752-1.991-11.064-13.316-21.858-20.155-18.956-12.01-53.307.624-53.666 9.437-.329 8.081 27.359 11.938 27.539 24.266.105 7.157-9.199 9.042-9.18 16.177.034 12.757 29.8 17.406 29.657 28.984-.072 5.825-7.635 6.911-18.899 20.066-1.757 2.052-2.972 3.696-4.101 5.421-2.166 3.31 10.984 6.918 6.224 14.282-17.33 26.807-26.159 40.121-34.6 39.095-6.505-.791-7.821 6.023-14.123 6.237-6.698.228-13.082-5.484-14.829 3.199-2.931 14.569 9.581 23.551 5.123 29.754-4.722 6.571-23.24 3.359-23.241 4.479 0 0 0 0-.001 0-.095-.001-10.201-.095-19.257 1.838-5.895 1.258-32.358 3.285-23.75 11.949" fill="#fd9468"/><path d="m132.178 131.067c-17.33 26.807-26.159 40.121-34.6 39.095-6.505-.791-7.821-8.977-14.123-8.763-6.698.228-13.082 9.516-14.829 18.199-2.931 14.569 9.581 23.551 5.123 29.754-4.722 6.571-23.24 3.359-23.241 4.479-.095-.001-10.201-.095-19.257 1.838-5.894 1.258-14.314 4.196-23.75 11.949.356 1.771 5.424 24.8 28.725 34.008 15.104 5.969 29.008 2.629 36.226-.027 2.263-.833 4.505 1.215 3.93 3.557-1.016 4.139-2.938 9.11-6.616 13.933-13.549 17.766-38.201 16.822-40.521 16.698 23.089 24.636 38.66 28.146 49.026 25.889 20.095-4.375 30.986-32.678 37.901-29.628 3.38 1.491 2.575 9.047 2.589 17.643.019 11.107 1.315 21.122 5.143 35.537h179.652c.763-.582 1.537-1.186 2.331-1.834 39.619-32.345 44.43-76.093 72.025-76.842 5.896-.16 13.021 1.755 14.829-1.348 3.221-5.53-16.767-16.04-15.981-32.682.367-7.768 5.101-13.347 6.778-15.329 2.748-3.247 6.875-6.646 28.268-12.654 15.85-4.451 23.546-6.44 25.421-4.044 2.764 3.531-15.538 14.706-13.417 28.31 1.302 8.348 9.697 13.774 13.417 16.177 1.376.889 15.105 9.762 21.184 5.392 5.253-3.777-2.352-14.702 2.825-31.007 2.795-8.803 5.629-7.329 9.886-17.525 7.278-17.434.548-25.979 7.767-33.703 7.91-8.463 19.48-2.535 24.009-9.437 6.519-9.935-7.828-36.897-25.421-38.421-12.18-1.055-22.65 10.365-31.069 19.547-13.312 14.519-12.06 25.033-23.303 29.658-10.435 4.293-21.527-.254-23.768-1.172-17.445-7.15-20.019-24.472-27.779-23.768-8.473.769-5.073 21.39-18.372 32.59-10.591 8.918-38.741-.078-94.609-18.435-3.702-1.216-11.105-3.805-12.71-9.437-2.055-7.209 7.867-11.403 7.768-18.873-.07-5.252-5.062-9.674-11.595-13.606h-101.083c-2.167 3.312-4.018 6.918-8.779 14.282z" fill="#f9f7f8"/><g><path d="m242.039 116.785c-12.848-7.734-31.663-13.573-30.773-20.095.756-5.542 16.304-4.734 19.065-13.481 2.094-6.635-5.852-10.089-5.704-18.582.249-14.262 22.924-19.76 21.183-28.187-1.397-6.762-17.689-11.398-31.014-9.853-3.693.428-6.521 1.259-8.888 2.177 5.339 1.818 9.249 4.514 9.902 7.675 1.741 8.427-20.934 13.925-21.183 28.187-.148 8.493 7.798 11.946 5.704 18.582-2.761 8.747-18.31 7.938-19.065 13.481-.889 6.522 17.924 12.361 30.772 20.094z" fill="#fe7d43"/><g fill="#efedef"><path d="m212.037 116.785c6.535 3.933 11.526 8.356 11.596 13.609.099 7.47-9.822 11.664-7.768 18.873 1.605 5.632 9.008 8.22 12.71 9.437 54.011 17.747 82.113 26.742 93.491 19.262-15.274-3.484-36.027-10.238-63.491-19.262-3.702-1.216-11.105-3.805-12.71-9.437-2.055-7.209 7.867-11.403 7.768-18.873-.07-5.252-5.061-9.675-11.594-13.608z"/><path d="m376.76 232.522c.367-7.768 5.101-13.347 6.778-15.329 2.382-2.815 5.809-5.745 20.615-10.389 2.421-2.891 4.043-5.071 3.075-6.309-1.875-2.396-9.571-.407-25.421 4.044-21.394 6.008-25.521 9.406-28.268 12.654-1.678 1.982-6.411 7.561-6.778 15.329-.786 16.642 19.203 27.152 15.981 32.682-1.808 3.103-8.934 1.188-14.829 1.348-27.595.749-32.407 44.497-72.025 76.842-21.752 17.759-31.56 9.571-43.191 25.368-13.759 18.686-4.297 32.65-12.593 68.326-4.607 19.811-13.888 42.86-24.408 56.229 8.118 10.615 11.219 11.103 12.746 11.177 16.629.798 34.614-37.097 41.662-67.405 8.296-35.675-1.166-49.639 12.593-68.326 11.632-15.797 21.44-7.609 43.191-25.368 39.619-32.345 44.43-76.093 72.025-76.842 5.896-.16 13.021 1.755 14.829-1.348 3.221-5.531-16.768-16.041-15.982-32.683z"/><path d="m477.477 120.283c-6.072-.526-11.718 2.049-16.898 5.9 10.677 8.864 17.09 25.248 12.319 32.521-4.528 6.902-16.099.974-24.009 9.437-7.219 7.724-.489 16.269-7.767 33.703-4.256 10.196-7.091 8.722-9.886 17.525-2.549 8.027-1.999 14.747-1.411 19.955 2.671 2.594 5.591 4.488 7.403 5.659 1.376.889 15.105 9.762 21.184 5.392 5.253-3.777-2.352-14.702 2.825-31.007 2.795-8.803 5.629-7.329 9.886-17.525 7.278-17.434.548-25.979 7.767-33.703 7.91-8.463 19.48-2.535 24.009-9.437 6.518-9.935-7.829-36.896-25.422-38.42z"/></g></g><path d="m123.903 345.229c1.437 5.411 3.232 11.443 5.451 18.387 2.891 9.048 10.44 25.253 25.421 57.295 9.215 19.709 17.057 36.027 29.658 55.947 16.878 26.68 21.915 27.535 24.008 27.636 16.629.798 34.614-37.097 41.662-67.405 8.296-35.675-1.166-49.639 12.593-68.326 11.209-15.222 20.723-8.173 40.864-23.53z" fill="#57be92"/><path d="m264.114 366.955c8.962-11.613 22.991-8.826 38.531-21.045.301-.223.601-.444.906-.677h-29.999c-20.132 15.344-29.65 8.311-40.856 23.53-13.759 18.686-4.297 32.65-12.593 68.326-4.607 19.811-13.888 42.86-24.408 56.229 4.808 6.288 7.856 9.022 9.86 10.221.01.006.02.012.029.018.298.177.572.32.826.436.014.006.029.014.043.02.074.033.146.063.217.092.028.011.055.022.082.032.205.08.394.141.57.189.037.01.074.02.11.029.044.011.087.021.13.03s.085.017.126.025c.034.006.068.013.101.019.068.011.134.021.198.028.027.003.053.006.079.009.046.005.09.009.134.013.021.002.043.004.064.005.061.004.12.008.177.011 16.629.798 34.614-37.097 41.662-67.405 8.296-35.675-1.166-49.639 12.593-68.326.469-.639.95-1.203 1.418-1.809z" fill="#22b37f"/></g><path d="m287.362 265.434c3.87 1.473 8.204-.468 9.679-4.339l3.214-8.438h22.249l3.176 8.417c1.474 3.923 5.872 5.801 9.665 4.369 3.875-1.463 5.831-5.79 4.368-9.665l-20.107-53.279c-1.268-3.379-4.538-5.612-8.148-5.611h-.009c-3.557.004-6.724 2.133-8.068 5.425-.069.169-20.289 53.263-20.357 53.443-1.476 3.87.467 8.204 4.338 9.678zm24.068-42.119 5.412 14.341h-10.875zm-174.932 138.018c-7.724-24.174-10.211-36.726-10.236-51.654-.015-9.01 1.492-20.72-7.063-24.493-8.17-3.603-14.376 3.909-20.375 11.177-5.9 7.149-13.244 16.046-22.148 17.985-9.57 2.081-20.724-4.377-30.556-12.731 9.655-2.192 21.318-7.107 29.609-17.979 3.755-4.923 6.425-10.54 7.937-16.694.931-3.794-.297-7.766-3.205-10.365-2.894-2.586-6.955-3.36-10.6-2.019-6.015 2.214-18.027 5.169-30.879.09-14.345-5.668-20.489-17.69-22.844-24.174 5.393-3.749 10.986-6.257 16.679-7.472 10.322-2.203 16.615-1.101 19.668-1.938 8.298.143 21.199 1.229 27.355-7.337 4.623-6.432 1.48-13.271-.813-18.265-2.125-4.625-4.132-8.995-3.047-14.387 1.36-6.76 5.685-11.553 7.452-12.127.441.377 1.138 1.144 1.629 1.684 2.288 2.518 7.411 7.093 13.565 7.092 12.318-.001 21.817-14.693 39.851-42.589 2.852-4.411 4.679-7.496 6.146-9.975 2.255-3.808 3.387-5.719 6.129-8.922 4.72-5.512 8.649-8.634 11.807-11.144 4.333-3.443 8.813-7.003 8.895-13.708.125-10.098-9.545-15.567-18.077-20.392-3.463-1.959-11.574-6.546-11.581-8.737.151-.501 1.521-1.839 2.339-2.639 2.764-2.701 6.94-6.782 6.84-13.596-.165-11.321-11.7-17.113-20.123-21.342-1.729-.868-4.002-2.01-5.713-3.019 7.052-4.754 28.337-10.571 40.45-2.896 3.525 2.233 5.644 5.291 7.886 8.528 3.395 4.901 7.621 11 16.621 12.667 6.663 1.235 11.126-.85 15.065-2.689 2.958-1.381 5.752-2.685 10.499-3.235 9.565-1.109 18.395 1.496 21.788 3.565-1.234 1.132-3.124 2.567-4.523 3.628-6.583 4.997-15.598 11.839-15.797 23.265-.11 6.31 2.684 10.812 4.533 13.79.538.867 1.335 2.15 1.503 2.706-.474 1.242-4.642 2.74-6.893 3.548-4.846 1.741-11.481 4.124-12.438 11.136-1.342 9.838 9.318 14.991 21.662 20.957 5.625 2.719 11.441 5.53 15.687 8.53 3.889 2.748 4.942 4.643 4.951 5.329.012.878-1.447 2.768-2.619 4.287-2.785 3.608-6.994 9.061-4.862 16.542 2.745 9.631 13.525 13.173 17.583 14.506 10.418 3.424 20.512 6.732 29.479 9.571 3.953 1.253 8.164-.937 9.415-4.886 1.25-3.949-.938-8.164-4.886-9.414-8.896-2.817-18.948-6.111-29.326-9.522-6.428-2.112-7.596-3.781-7.808-4.281.247-.719 1.461-2.292 2.279-3.352 2.458-3.185 5.824-7.547 5.743-13.652-.176-13.181-15.547-20.61-29.109-27.165-2.902-1.403-6.677-3.228-9.575-4.87 5.329-1.944 12.577-5.006 15.035-12.792 2.12-6.716-1.008-11.755-3.078-15.09-1.477-2.379-2.312-3.814-2.28-5.618.072-4.142 5.052-7.922 9.868-11.578 5.751-4.365 12.908-9.798 11.161-18.257-1.261-6.104-6.856-10.839-16.182-13.695-7.167-2.195-15.567-2.956-23.041-2.09-7.16.831-11.757 2.977-15.114 4.543-3.145 1.469-4.132 1.876-5.99 1.532-2.695-.499-3.923-1.987-7.022-6.459-2.715-3.918-6.093-8.795-12.188-12.657-7.391-4.683-17.08-6.729-28.015-5.918-8.81.653-17.915 3.151-24.982 6.854-9.784 5.126-12.021 10.731-12.176 14.531-.345 8.479 8.167 12.753 15.678 16.524 3.233 1.624 11.823 5.937 11.858 8.182-.159.503-1.517 1.83-2.329 2.623-2.737 2.674-6.873 6.716-6.854 13.439.029 10.881 10.657 16.892 19.196 21.721 3.116 1.763 8.678 4.908 10.179 6.86-.713.667-1.922 1.627-2.945 2.44-3.466 2.754-8.213 6.527-13.868 13.131-3.591 4.193-5.29 7.063-7.642 11.035-1.401 2.366-3.145 5.311-5.836 9.474-8.887 13.747-15.088 23.211-20.11 29.271-5.278 6.37-7.303 6.428-7.287 6.45-.391-.047-1.603-1.379-2.327-2.175-2.336-2.567-6.239-6.862-12.957-6.638-8.324.284-18.837 8.868-21.925 24.216-2.048 10.177 1.665 18.259 4.122 23.607.512 1.113 1.153 2.511 1.525 3.526-1.978.727-6.111 1.015-12.327.855-2.156-.054-3.924-.1-5.484.23-3.318.046-11.641.335-19.425 1.997-9.438 2.015-18.504 6.553-26.946 13.489-2.141 1.759-3.138 4.556-2.592 7.273.589 2.928 6.524 28.916 33.322 39.504 12.322 4.87 23.943 4.359 32.538 2.6-.658 1.162-1.394 2.277-2.205 3.34-11.29 14.803-33.227 13.809-34.157 13.757-3.058-.163-5.908 1.548-7.2 4.325-1.292 2.776-.767 6.059 1.328 8.293 21.108 22.523 39.456 31.715 56.094 28.088 14.324-3.123 24.183-15.334 31.442-24.202-.02 1.625-.05 3.202-.047 4.901.028 16.483 2.791 30.663 10.948 56.194 2.607 8.158 8.345 20.866 21.064 48.115 1.772 3.797 6.285 5.343 9.968 3.624 3.753-1.752 5.375-6.215 3.624-9.968-10.65-22.811-17.822-38.363-20.368-46.33zm60.234-103.171c.129 1.803.898 3.506 2.189 4.787 1.405 1.395 3.305 2.177 5.284 2.177h.028c.449-.002 11.045-.042 15.283-.117 16.289-.285 28.111-14.417 28.111-33.604 0-20.169-11.524-33.72-28.677-33.72h-14.852c-1.992 0-3.901.792-5.308 2.202s-2.196 3.321-2.192 5.313v.039.002c0 1.386.042 51.641.134 52.921zm22.218-45.476c12.69 0 13.677 14.328 13.677 18.72 0 12.691-6.717 18.489-13.374 18.605-1.759.031-4.731.056-7.574.075-.02-6.133-.043-14.459-.043-18.738 0-3.586-.014-12.275-.024-18.662zm-113.146-9.098v54.038c0 4.142 3.358 7.5 7.5 7.5s7.5-3.358 7.5-7.5v-54.038c0-4.142-3.358-7.5-7.5-7.5s-7.5 3.358-7.5 7.5zm151.729 0v54.038c0 4.142 3.357 7.5 7.5 7.5s7.5-3.358 7.5-7.5v-54.038c0-4.142-3.357-7.5-7.5-7.5s-7.5 3.358-7.5 7.5zm250.393-66.953c-4.965-10.229-15.749-22.607-29.802-23.824-15.854-1.375-28.219 12.106-37.245 21.951-6.512 7.102-9.844 13.281-12.521 18.245-3.063 5.679-4.452 8.044-8.106 9.547-4.89 2.011-11.309 1.594-18.07-1.176-7.608-3.118-11.738-8.781-15.383-13.778-3.836-5.259-8.182-11.219-15.919-10.519-9.169.832-11.646 9.69-13.634 16.808-1.719 6.147-3.665 13.114-8.892 17.515-2.036 1.716-7.831 3.01-23.858-.572-4.043-.902-8.052 1.642-8.955 5.684s1.642 8.052 5.684 8.955c23.477 5.247 31.773 1.633 36.792-2.593 8.765-7.381 11.604-17.536 13.676-24.951.344-1.231.751-2.688 1.156-3.951.62.804 1.271 1.695 1.831 2.463 4.092 5.611 10.276 14.091 21.816 18.821 10.438 4.274 20.898 4.689 29.463 1.167 8.752-3.6 12.233-10.055 15.601-16.297 2.402-4.454 5.125-9.501 10.378-15.23 7.304-7.966 16.413-17.874 24.893-17.143 6.216.538 13.454 6.883 17.602 15.429 2.868 5.909 2.866 10.262 2.218 11.37-.691.378-3.054.607-4.633.761-4.995.485-12.544 1.218-18.606 7.704-5.582 5.972-5.741 12.496-5.883 18.251-.124 5.075-.253 10.322-3.325 17.684-1.682 4.027-2.913 5.581-4.34 7.38-1.842 2.322-3.929 4.954-5.773 10.765-3.698 11.648-2.018 18.756-1.305 26.854-2.437-.484-6.718-2.188-11.485-5.269-2.78-1.797-9.292-6.005-10.077-11.034-.758-4.863 4.149-10.666 7.731-14.902 3.812-4.507 9.031-10.679 4.182-16.875-5.083-6.495-13.943-4.005-33.354 1.446-21.224 5.96-27.608 9.88-31.976 15.041-1.991 2.352-8.049 9.51-8.535 19.809-.557 11.783 6.438 20.747 11.708 26.937-1.071-.053-2.172-.082-3.269-.05-18.987.516-28.801 16.055-40.164 34.048-9.021 14.285-19.245 30.476-36.4 44.481-9.47 7.731-16.032 9.854-22.379 11.907-7.224 2.336-14.692 4.752-22.109 14.824-9.286 12.611-9.593 23.787-9.948 36.727-.255 9.315-.545 19.873-3.911 34.347-3.536 15.205-9.688 31.418-16.458 43.37-7.439 13.134-13.748 17.986-17.123 18.236-1.278-.827-6.315-4.972-18.445-24.146-6.713-10.613-12.379-20.658-18.371-32.57-1.861-3.7-6.37-5.193-10.07-3.33-3.7 1.861-5.191 6.37-3.33 10.07 6.22 12.367 12.109 22.806 19.094 33.849 17.848 28.216 24.265 31.139 30.893 31.139 25.723 0 43.643-52.675 48.421-73.22 3.709-15.947 4.034-27.805 4.295-37.333.332-12.108.533-19.417 7.032-28.244 4.552-6.181 8.137-7.341 14.646-9.446 6.948-2.247 15.595-5.044 27.25-14.56 19.048-15.55 30.441-33.593 39.598-48.091 11.106-17.587 17.391-26.778 27.888-27.063 1.389-.034 3.077.087 4.708.208 5.39.398 12.774.945 16.398-5.277 4.043-6.94-1.404-13.283-5.78-18.38-4.455-5.187-9.504-11.066-9.19-17.724.246-5.207 3.701-9.29 5.012-10.838s3.75-4.431 24.571-10.278c2.688-.755 5.728-1.608 8.643-2.385-3.928 5.517-7.345 12.454-6.076 20.586 1.82 11.668 12.287 18.433 16.757 21.321 7.246 4.682 20.728 11.582 29.632 5.182 6.063-4.359 5.258-11.325 4.609-16.921-.589-5.084-1.256-10.846.986-17.906 1.012-3.188 1.8-4.181 3.229-5.984 1.759-2.218 3.948-4.979 6.429-10.921 4.157-9.959 4.344-17.551 4.479-23.095.13-5.327.316-6.739 1.846-8.375 2.091-2.237 4.688-2.588 9.098-3.017 4.881-.474 11.566-1.123 15.702-7.426 4.184-6.388 3.731-15.931-1.247-26.188zm-368.832 59.894c-3.134.977-5.268 3.878-5.268 7.16v53.938c0 4.142 3.358 7.5 7.5 7.5s7.5-3.358 7.5-7.5v-29.878l22.8 33.017c2.175 3.141 5.816 4.47 9.27 3.393 3.521-1.101 5.796-4.379 5.796-8.425l-.505-52.217c-.04-4.118-3.39-7.428-7.498-7.428-.024 0-.049 0-.074 0-4.142.04-7.467 3.43-7.427 7.572l.295 30.5-23.986-34.733c-1.864-2.702-5.268-3.876-8.403-2.899z"/></g></svg>