<svg height="489pt" viewBox="0 -1 489.82812 489" width="489pt" xmlns="http://www.w3.org/2000/svg"><path d="m425.398438 256.933594-7.78125-14.742188-13.554688 9.703125c-8.742188 6.222657-16.644531 14.785157-23.457031 24.441407l56.253906 14.0625c-2.054687-11.507813-5.800781-22.8125-11.460937-33.464844zm0 0" fill="#e20736"/><path d="m380.605469 276.335938c-10.898438 15.445312-18.972657 33.71875-22.953125 49.925781l-.199219.855469c-2.195313 11.730468-4.351563 27.824218-4.429687 39.644531-.074219 3.105469.097656 5.859375.359374 8.222656l15.574219 3.675781-13.300781 21.519532 46.714844 11.03125-2.273438-25.199219 15.574219 3.675781c6.585937-9.785156 14.6875-34.011719 18.324219-46.632812.203125-.859376.484375-1.695313.648437-2.398438 4.496094-16.363281 5.199219-33.535156 2.214844-50.257812zm0 0" fill="#e3ddd5"/><path d="m414.132812 327.84375c0 8.839844-7.164062 16-16 16-8.835937 0-16-7.160156-16-16 0-8.835938 7.164063-16 16-16 8.835938 0 16 7.164062 16 16zm0 0" fill="#29abe2"/><path d="m98.578125 308.9375 79.234375-11.03125-6.617188-47.539062 73.71875-25.957032 1.105469-16.769531-95.085937 13.238281-47.539063 6.617188-90.480469-35.082032.011719 23.445313 79.03125 45.539063zm0 0" fill="#e3ddd5"/><path d="m245.679688 8.414062 191.234374 40-192 79.992188zm0 0" fill="#ffd422"/><path d="m177.8125 297.90625 33.496094 124.574219-15.847656 2.203125-50.648438-73.71875-28.585938 84.75-15.847656 2.207031-1.800781-128.984375zm0 0" fill="#333"/><path d="m147.855469 200.417969c0 13.253906-10.746094 24-24 24-13.253907 0-24-10.746094-24-24 0-13.253907 10.746093-24 24-24 13.253906 0 24 10.746093 24 24zm0 0" fill="#ffb398"/><path d="m135.085938 223.085938 14.542968 46.4375-13.640625 18.042968-18.054687-13.632812 1.308594-48.644532zm0 0" fill="#e20736"/><path d="m236.914062.414062h16v432h-16zm0 0" fill="#0071bc"/><path d="m476.859375 412.191406-12.867187 54.5-20.335938-54.53125-35.03125-24.296875 7.082031 1.671875c6.585938-9.789062 14.691407-34.015625 18.328125-46.636718zm0 0" fill="#ffd422"/><path d="m361.480469 376.894531-41.777344 6.003907-42.574219 39.675781 12.867188-54.5 67.65625-41.8125-.199219.855469c-2.195313 11.730468-4.351563 27.824218-4.429687 39.644531-.074219 3.105469.097656 5.859375.359374 8.222656zm0 0" fill="#ffd422"/><path d="m484.914062 480.414062s-72-56-240-56-240 56-240 56zm0 0" fill="#ff9811"/><path d="m392.617188 351.203125c1.84375.429687 3.710937.648437 5.5625.648437 4.398437 0 8.726562-1.21875 12.5625-3.585937 5.460937-3.375 9.273437-8.664063 10.75-14.90625 3.039062-12.875-4.960938-25.828125-17.84375-28.875-6.234376-1.445313-12.679688-.421875-18.132813 2.945313-5.453125 3.375-9.265625 8.664062-10.742187 14.90625-1.46875 6.234374-.429688 12.671874 2.945312 18.125 3.367188 5.460937 8.664062 9.273437 14.898438 10.742187zm-2.265626-25.1875c0-.007813 0-.007813 0-.007813.492188-2.078124 1.757813-3.84375 3.578126-4.96875 1.28125-.789062 2.726562-1.195312 4.1875-1.195312.617187 0 1.242187.070312 1.851562.21875 4.296875 1.007812 6.960938 5.328125 5.945312 9.625-.484374 2.078125-1.757812 3.84375-3.578124 4.960938-1.8125 1.117187-3.953126 1.484374-6.046876.976562-2.078124-.484375-3.835937-1.757812-4.960937-3.570312-1.125-1.820313-1.46875-3.96875-.976563-6.039063zm0 0"/><path d="m472.964844 463.519531 11.683594-49.488281c.484374-2.0625.132812-4.234375-.984376-6.039062l-41.039062-66.402344c7.878906-29.804688 4.316406-61.152344-10.148438-88.394532l-7.78125-14.742187c-1.078124-2.046875-2.992187-3.523437-5.242187-4.054687-2.257813-.523438-4.617187-.0625-6.492187 1.289062l-13.539063 9.695312c-24.214844 17.230469-41.492187 49.734376-48.589844 75.691407l-65.042969 40.199219c-1.804687 1.117187-3.09375 2.898437-3.585937 4.96875l-11.953125 50.632812c-5.65625-.191406-11.441406-.316406-17.335938-.378906v-191.804688l1.085938-16.527344c.097656-1.523437-.375-2.949218-1.085938-4.261718v-70.164063l187.078126-77.941406c3.234374-1.34375 5.21875-4.648437 4.882812-8.132813-.328125-3.492187-2.890625-6.359374-6.320312-7.078124l-185.640626-38.832032v-1.339844h-16v200.417969l-83.570312 11.632813c2.082031-5.058594 3.011719-10.660156 2.203125-16.457032-1.179687-8.46875-5.585937-15.96875-12.398437-21.125-6.828126-5.148437-15.226563-7.351562-23.703126-6.15625-8.46875 1.179688-15.96875 5.585938-21.125 12.398438-5.148437 6.820312-7.335937 15.242188-6.15625 23.703125.566407 4.058594 1.882813 7.828125 3.777344 11.203125l-80.136718-31.078125c-2.46875-.945313-5.234376-.625-7.414063.859375-2.171875 1.492188-3.476563 3.960938-3.476563 6.601562l.007813 23.445313c0 2.859375 1.53125 5.507813 4.007813 6.929687l75.648437 43.585938 6.007813 43.152344 1.746093 124.980468c-61.683593 16.367188-90.453125 38.132813-92.332031 39.59375l9.828125 12.625c.695313-.539062 71.71875-54.3125 235.085937-54.3125 162.6875 0 234.398438 53.78125 235.085938 54.3125l9.828125-12.625c-.785156-.609374-6.285156-4.769531-16.863281-10.582031zm-219.347656-445.269531 156.390624 32.710938-157.015624 65.414062zm208.648437 420.929688-11.117187-29.8125c-.570313-1.53125-1.59375-2.84375-2.929688-3.773438l-23.171875-16.082031c4.152344-7.742188 8.238281-18.523438 11.339844-27.589844l31.925781 51.664063zm-53.546875-180.78125 6.101562-4.367188 3.515626 6.648438c12.742187 24 15.796874 51.648437 8.601562 77.859374-.023438.070313-.242188.875-.257812.945313-.136719.464844-.257813.902344-.324219 1.175781 0 .007813-.007813.015625-.011719.027344-3.21875 11.1875-9.296875 29.273438-14.585938 39.695312l-1.296874-.3125c-.3125-.074218-.621094-.015624-.9375-.050781l-7.585938-1.792969c-2.515625-.578124-5.140625.0625-7.078125 1.742188-1.945313 1.6875-2.953125 4.203125-2.726563 6.765625l1.273438 14.140625-25.109375-5.929688 7.460937-12.078124c1.351563-2.1875 1.570313-4.890626.585938-7.265626s-3.046875-4.132812-5.546875-4.726562l-9.789063-2.3125c-.007812-.570312 0-1.15625.015626-1.75.078124-11.671875 2.265624-27.398438 4.21875-37.851562l.191406-.8125c5.761718-23.492188 21.375-54.152344 43.285156-69.75zm-111.703125 114.742187 49.945313-30.867187c-.054688.414062-.097657.839843-.152344 1.257812-.15625 1.238281-.304688 2.476562-.449219 3.726562-.089844.800782-.175781 1.589844-.261719 2.390626-.121094 1.164062-.230468 2.316406-.335937 3.476562-.074219.820312-.148438 1.632812-.210938 2.441406-.097656 1.203125-.167969 2.371094-.242187 3.542969-.042969.710937-.09375 1.429687-.125 2.125-.089844 1.832031-.148438 3.621094-.160156 5.320313-.039063 1.554687-.023438 3.085937.039062 4.617187l-26.5 3.804687c-1.609375.234376-3.117188.953126-4.3125 2.070313l-23.273438 21.6875zm26.304687 17.320313 31.753907-4.558594-6.222657 10.074218c-1.351562 2.1875-1.570312 4.890626-.585937 7.265626s3.046875 4.132812 5.554687 4.726562l46.710938 11.03125c.609375.140625 1.226562.210938 1.835938.210938 1.90625 0 3.773437-.679688 5.242187-1.953126 1.9375-1.6875 2.953125-4.203124 2.726563-6.765624l-1.125-12.492188 27.828124 19.304688 13.101563 35.136718c-31.503906-13.566406-82.648437-29.351562-156.4375-34.378906zm-105.214843 26.460937-32.445313-120.636719-5.636718-40.542968 56.890624-20.035157v180.789063c-6.40625.066406-12.6875.203125-18.808593.425781zm-46.183594-110.117187 29.3125 109-1.976563.273437-47.851562-69.640625c-1.71875-2.5-4.71875-3.851562-7.695312-3.390625-3 .414063-5.507813 2.492187-6.476563 5.367187l-27.007813 80.0625-1.96875.273438-1.578124-112.859375zm-31.15625-38.820313-6.335937 8.382813-8.382813-6.328126 1.007813-37.757812 2.421874-.335938zm-29.679687-77.210937c2.578124-3.40625 6.328124-5.609376 10.5625-6.203126.75-.101562 1.5-.15625 2.242187-.15625 3.453125 0 6.804687 1.117188 9.609375 3.234376 3.40625 2.578124 5.609375 6.328124 6.203125 10.5625 1.21875 8.734374-4.90625 16.832031-13.636719 18.054687h-.007812c-8.738282 1.21875-16.824219-4.898437-18.050782-13.640625-.585937-4.234375.507813-8.445312 3.078126-11.851562zm-90.164063 20.460937-.007813-7.132813 79.585938 30.859376c1.265625.5 2.640625.664062 3.992188.460937l6.496093-.90625-1.050781 39.210937c-.0625 2.578126 1.117188 5.039063 3.179688 6.59375l18.046874 13.632813c1.445313 1.09375 3.132813 1.617187 4.8125 1.617187 2.421876 0 4.8125-1.09375 6.390626-3.171874l13.648437-18.046876c1.554687-2.0625 2.023437-4.75 1.25-7.21875l-11.722656-37.425781 91.371093-12.71875v1.757813l-68.375 24.074218c-3.585937 1.265626-5.789062 4.882813-5.265624 8.648438l5.515624 39.617188-63.390624 8.828124-5.515626-39.617187c-.335937-2.445313-1.789062-4.601563-3.929687-5.828125zm126.359375 157.453125 34.6875 50.492188c-19.804688 1.785156-37.855469 4.335937-54.214844 7.386718zm0 0"/></svg>