<svg id="flat" height="512" viewBox="0 0 512 512" width="512" xmlns="http://www.w3.org/2000/svg"><path d="m24 24h256v304h-256z" fill="#c8dbf7"/><path d="m424 144v240h-200a15.99564 15.99564 0 0 1 -16-16v-169.37012a16.14406 16.14406 0 0 1 4.68994-11.31982l54.62012-54.62012a16.14406 16.14406 0 0 1 11.31994-4.68994h129.37a15.99548 15.99548 0 0 1 16 16z" fill="#f6bb00"/><path d="m280 24-48 72h-160l-48-72z" fill="#e0edff"/><path d="m120.41064 202.53027-.84472-2.53418a44.33864 44.33864 0 0 1 8.43408-43.12597v-76.87012a24 24 0 0 1 48 0v72a24.02718 24.02718 0 0 1 -24 24v-16a8.00917 8.00917 0 0 0 8-8v-72a8 8 0 0 0 -16 0v80a8.00076 8.00076 0 0 1 -2.34326 5.65723 28.45344 28.45344 0 0 0 -6.91211 29.27832l.84473 2.53418z" fill="#a4b9e0"/><path d="m56 248h64v48h-64z" fill="#b2c6eb" transform="matrix(-1 0 0 -1 176 544)"/><path d="m144 248h64v16h-64z" fill="#b2c6eb"/><path d="m144 280h16v16h-16z" fill="#b2c6eb"/><path d="m176 280h32v16h-32z" fill="#b2c6eb"/><g fill="#eda600"><path d="m240 240h16v16h-16z"/><path d="m272 240h48v16h-48z"/><path d="m336 240h48v16h-48z"/><path d="m240 280h16v16h-16z"/><path d="m272 280h112v16h-112z"/><path d="m296 152h16v16h-16z"/><path d="m328 152h48v16h-48z"/><path d="m344 184h32v16h-32z"/><path d="m296 184h32v16h-32z"/><path d="m296 336h24v16h-24z"/><path d="m336 336h40v16h-40z"/></g><path d="m328 424h160v64h-160z" fill="#c78640"/><path d="m384 424v-72a47.99993 47.99993 0 0 0 -9.6-28.8 71.9999 71.9999 0 0 1 -14.4-43.2 48 48 0 0 1 48-48h.0001a48 48 0 0 1 48 48 71.9999 71.9999 0 0 1 -14.4 43.2 47.99993 47.99993 0 0 0 -9.6001 28.8v72z" fill="#b1712c"/><path d="m272 129.45v46.55a15.99564 15.99564 0 0 1 -16 16h-46.55a15.82658 15.82658 0 0 1 3.24-4.68994l54.62012-54.62012a15.82658 15.82658 0 0 1 4.68988-3.23994z" fill="#fcd453"/><circle cx="152" cy="80" fill="#fac623" r="16"/><circle cx="152" cy="160" fill="#fac623" r="16"/></svg>