<svg id="Capa_1" enable-background="new 0 0 512.002 512.002" height="512" viewBox="0 0 512.002 512.002" width="512" fill="#FFFFFF" xmlns="http://www.w3.org/2000/svg"><g><g><g><path d="m349.281 91.859c-1.06-5.264-4.659-9.619-9.629-11.651l-13.864-5.668c-7.568-3.094-16.196-1.358-21.979 4.425l-3.811 3.811-11.584-11.584c8.021-9.614 7.532-23.973-1.489-32.994l-1.751-1.751c-9.552-9.55-25.092-9.55-34.643 0l-86.59 86.59c-9.55 9.551-9.55 25.092.001 34.644l1.75 1.749c4.627 4.627 10.778 7.175 17.322 7.175 5.798 0 11.285-2.004 15.68-5.679l11.577 11.577-3.811 3.811c-5.783 5.783-7.519 14.41-4.424 21.979l5.668 13.863c1.889 4.622 5.79 8.056 10.56 9.367l-33.378 39.814c-8.71-3.381-18.987-1.576-26.005 5.443-6.815 6.815-8.7 16.697-5.711 25.238l-142.139 131.214c-6.921 6.389-10.835 15.094-11.024 24.511-.188 9.417 3.376 18.271 10.037 24.932 6.493 6.493 15.071 10.044 24.223 10.043.235 0 .472-.002.708-.007 9.417-.188 18.122-4.103 24.511-11.024l71.178-77.105c2.81-3.044 2.62-7.789-.423-10.598-3.043-2.81-7.789-2.62-10.598.423l-71.178 77.105c-3.594 3.894-8.491 6.096-13.789 6.202-5.304.097-10.279-1.899-14.025-5.646-3.747-3.747-5.752-8.728-5.646-14.026.106-5.297 2.309-10.194 6.202-13.789l140.803-129.98 16.436 16.436-34.791 37.688c-2.81 3.044-2.62 7.789.423 10.598 1.442 1.332 3.266 1.989 5.085 1.989 2.02 0 4.035-.812 5.513-2.413l35.993-38.99c2.564.903 5.289 1.375 8.088 1.375 6.491 0 12.593-2.528 17.183-7.117 4.59-4.59 7.118-10.692 7.118-17.183 0-3.074-.573-6.058-1.658-8.838l39.798-33.363c1.311 4.77 4.745 8.671 9.366 10.561l13.864 5.668c2.491 1.018 5.096 1.513 7.677 1.513 5.262 0 10.422-2.059 14.302-5.938l3.811-3.811 11.584 11.584c-8.021 9.614-7.531 23.973 1.49 32.994l1.75 1.75c4.776 4.776 11.047 7.163 17.321 7.163 6.272 0 12.547-2.388 17.322-7.163l86.59-86.59c9.55-9.551 9.55-25.092 0-34.643l-1.75-1.75c-9.021-9.021-23.38-9.51-32.994-1.49l-11.584-11.584 3.811-3.811c5.783-5.783 7.519-14.41 4.424-21.979l-5.667-13.864c-2.032-4.97-6.388-8.569-11.651-9.629-.311-.509-41.061-41.266-41.583-41.577zm-120.072 139.957 21.695 21.695-38.583 32.345-15.457-15.458zm197.992-28.196c2.537 0 4.921.988 6.715 2.781l1.75 1.75c3.702 3.703 3.702 9.727 0 13.43l-86.59 86.589c-3.703 3.703-9.727 3.703-13.43 0l-1.75-1.75c-3.702-3.703-3.702-9.727 0-13.43l86.59-86.59c1.794-1.792 4.179-2.78 6.715-2.78zm-26.358 1.212-68.515 68.515-11.504-11.504 68.515-68.515zm-7.694-36.528-97.35 97.35c-1.499 1.498-3.735 1.949-5.696 1.146l-13.864-5.668c-.123-.05-.495-.202-.601-.727s.179-.81.272-.903l111.086-111.086c.08-.079.296-.296.68-.296.069 0 .144.007.224.023.524.105.677.478.727.601l5.668 13.865c.802 1.961.353 4.197-1.146 5.695zm-17.856-29.396-108.89 108.89-31.481-31.481 108.89-108.89zm-192.279 12.697c-2.537 0-4.921-.988-6.714-2.782 0 0-.001 0-.001-.001l-1.75-1.749c-3.703-3.703-3.703-9.728 0-13.43l86.59-86.589c1.852-1.852 4.283-2.777 6.715-2.777s4.863.926 6.714 2.776l1.751 1.751c1.793 1.793 2.781 4.178 2.781 6.715s-.988 4.921-2.781 6.715l-86.59 86.59c-1.794 1.793-4.178 2.781-6.715 2.781zm34.052 35.315 53.54-53.54c2.929-2.929 2.929-7.678 0-10.606-2.929-2.929-7.678-2.929-10.606 0l-39.122 39.122-11.504-11.504 68.515-68.515 11.504 11.504-4.365 4.365c-2.929 2.929-2.929 7.678 0 10.606 2.929 2.929 7.678 2.929 10.606 0l18.782-18.782c1.499-1.499 3.734-1.95 5.696-1.146l13.864 5.668c.123.05.495.202.601.727s-.179.81-.272.903l-111.087 111.086c-.094.093-.377.376-.903.272-.524-.105-.676-.478-.726-.601l-5.668-13.864c-.803-1.961-.353-4.196 1.145-5.695zm-47.579 90.467c1.813-1.813 4.194-2.719 6.576-2.719 2.381 0 4.763.906 6.576 2.719l22.693 22.694c1.757 1.756 2.724 4.091 2.724 6.576 0 2.484-.967 4.819-2.725 6.576-1.756 1.757-4.091 2.724-6.576 2.724-2.484 0-4.819-.968-6.576-2.724l-22.693-22.693c-3.625-3.626-3.625-9.527.001-13.153z"/><path d="m498.532 433.8c-8.382-18.301-24.936-31.329-44.142-35.544v-8.864c0-10.106-8.222-18.328-18.328-18.328h-128.494c-4.142 0-7.5 3.358-7.5 7.5s3.358 7.5 7.5 7.5h128.494c1.835 0 3.328 1.493 3.328 3.328v7.396h-191.413v-7.396c0-1.835 1.493-3.328 3.328-3.328h20.868c4.142 0 7.5-3.358 7.5-7.5s-3.358-7.5-7.5-7.5h-20.868c-10.106 0-18.328 8.222-18.328 18.328v8.864c-19.205 4.215-35.76 17.243-44.142 35.544l-10.514 22.956c-2.611 5.701-2.147 12.255 1.24 17.532s9.153 8.428 15.424 8.428h297.396c6.271 0 12.037-3.15 15.424-8.428 3.387-5.277 3.851-11.831 1.24-17.532zm-3.349 32.385c-.367.571-1.219 1.53-2.801 1.53h-297.396c-1.582 0-2.434-.959-2.801-1.53-.367-.572-.884-1.745-.225-3.183l10.514-22.956c7.862-17.167 25.142-28.258 44.022-28.258h194.376c18.881 0 36.161 11.092 44.022 28.258l10.514 22.956c.659 1.438.142 2.611-.225 3.183z"/><path d="m476.612 360.635c1.912 0 3.825-.727 5.288-2.181l8.116-8.068c2.938-2.92 2.952-7.669.032-10.607-2.92-2.937-7.669-2.952-10.607-.032l-8.116 8.068c-2.938 2.92-2.952 7.669-.032 10.607 1.466 1.475 3.392 2.213 5.319 2.213z"/><path d="m448.478 323.31-2.815 11.224c-1.008 4.018 1.432 8.091 5.45 9.099.612.154 1.226.228 1.831.228 3.358 0 6.415-2.272 7.269-5.677l2.815-11.224c1.008-4.018-1.432-8.091-5.45-9.099-4.015-1.009-8.092 1.43-9.1 5.449z"/><path d="m485.972 378.682c.838 3.425 3.904 5.72 7.279 5.72.59 0 1.189-.07 1.788-.217l11.243-2.75c4.023-.984 6.487-5.043 5.503-9.067-.984-4.023-5.041-6.488-9.067-5.503l-11.243 2.75c-4.023.983-6.487 5.043-5.503 9.067z"/></g></g></g></svg>