<svg height="512" viewBox="0 0 64 64" width="512" xmlns="http://www.w3.org/2000/svg"><g id="Filled_outline" data-name="Filled outline"><path d="m56 49a2.44 2.44 0 0 1 -1.175 3.088l-17.825 8.912-20-2v-9h22a2 2 0 0 1 2 2l11-4c2-1 3.415-.456 4 1z" fill="#ffd782"/><path d="m8.5 52.5h13v4h-13z" fill="#195c85" transform="matrix(0 -1 1 0 -39.5 69.5)"/><path d="m6 52h9v5h-9z" fill="#50b4f8" transform="matrix(0 -1 1 0 -44 65)"/><path d="m23 28h20v6h-20z" fill="#fcf05a"/><g fill="#d3843d"><path d="m26 28h2v3h-2z"/><path d="m30 28h2v3h-2z"/><path d="m34 28h2v3h-2z"/><path d="m38 28h2v3h-2z"/></g><path d="m25 22h20v6h-20z" fill="#f9bb4b"/><path d="m28 22h2v3h-2z" fill="#d3843d"/><path d="m32 22h2v3h-2z" fill="#d3843d"/><path d="m36 22h2v3h-2z" fill="#d3843d"/><path d="m40 22h2v3h-2z" fill="#d3843d"/><path d="m23 40h20v6h-20z" fill="#fcf05a"/><path d="m26 40h2v3h-2z" fill="#d3843d"/><path d="m30 40h2v3h-2z" fill="#d3843d"/><path d="m34 40h2v3h-2z" fill="#d3843d"/><path d="m38 40h2v3h-2z" fill="#d3843d"/><path d="m21 34h20v6h-20z" fill="#f9bb4b"/><path d="m24 34h2v3h-2z" fill="#d3843d"/><path d="m28 34h2v3h-2z" fill="#d3843d"/><path d="m32 34h2v3h-2z" fill="#d3843d"/><path d="m36 34h2v3h-2z" fill="#d3843d"/><path d="m39 3 3 3-8 8-6-6-12 12 3 3 9-9 6 6 11-11 3 3v-9z" fill="#55b56a"/><path d="m13 62h4a1 1 0 0 0 1-1v-.9l18.9 1.9c.034 0 .067.005.1.005a1 1 0 0 0 .447-.1l17.824-8.913a3.459 3.459 0 0 0 1.655-4.353 3.269 3.269 0 0 0 -1.869-1.939 4.245 4.245 0 0 0 -3.451.378l-9.921 3.608a3 3 0 0 0 -2.685-1.686h-21v-1a1 1 0 0 0 -1-1h-4a1 1 0 0 0 -1 1v1h-4a1 1 0 0 0 -1 1v9a1 1 0 0 0 1 1h4v1a1 1 0 0 0 1 1zm5-11h21a1 1 0 0 1 0 2h-10v2h10a3 3 0 0 0 2.9-2.263l10.445-3.8a.969.969 0 0 0 .105-.044 2.532 2.532 0 0 1 1.9-.325 1.317 1.317 0 0 1 .723.8 1.447 1.447 0 0 1 -.693 1.822l-17.568 8.787-18.812-1.877zm-4-2h2v11h-2zm-5 9v-7h3v7z"/><path d="m24 22v5h-1a1 1 0 0 0 -1 1v5h-1a1 1 0 0 0 -1 1v6a1 1 0 0 0 1 1h1v5a1 1 0 0 0 1 1h20a1 1 0 0 0 1-1v-6a1 1 0 0 0 -1-1h-1v-4h1a1 1 0 0 0 1-1v-5h1a1 1 0 0 0 1-1v-6a1 1 0 0 0 -1-1h-20a1 1 0 0 0 -1 1zm-2 17v-4h2v2h2v-2h2v2h2v-2h2v2h2v-2h2v2h2v-2h2v4zm20 6h-18v-4h2v2h2v-2h2v2h2v-2h2v2h2v-2h2v2h2v-2h2zm-16-22h2v2h2v-2h2v2h2v-2h2v2h2v-2h2v2h2v-2h2v4h-18zm2 8v-2h2v2h2v-2h2v2h2v-2h2v2h2v-2h2v4h-18v-4h2v2z"/><path d="m28.707 7.293a1 1 0 0 0 -1.414 0l-12 12a1 1 0 0 0 0 1.414l3 3a1 1 0 0 0 1.414 0l8.293-8.293 5.293 5.293a1 1 0 0 0 1.414 0l10.293-10.293 2.293 2.293a1 1 0 0 0 1.707-.707v-9a1 1 0 0 0 -1-1h-9a1 1 0 0 0 -.707 1.707l2.293 2.293-6.586 6.586zm14-.586a1 1 0 0 0 0-1.414l-1.293-1.293h5.586v5.586l-1.293-1.293a1 1 0 0 0 -1.414 0l-10.293 10.293-5.293-5.293a1 1 0 0 0 -1.414 0l-8.293 8.293-1.586-1.586 10.586-10.586 5.293 5.293a1 1 0 0 0 1.414 0z"/></g></svg>