<svg height="496pt" viewBox="-24 0 496 496.20794" width="496pt" xmlns="http://www.w3.org/2000/svg"><g fill="#57a4ff"><path d="m376.105469 301.566406v106.640625h64v-117.359375c-.023438-47.121094-38.242188-85.300781-85.363281-85.28125h-21.277344c-4.960938-.019531-9.917969.410156-14.800782 1.28125 35.316407 18.386719 57.460938 54.902344 57.441407 94.71875zm0 0"/><path d="m297.382812 167.246094c14.117188 25.667968 46.285157 35.148437 72.0625 21.238281 25.777344-13.910156 35.515626-46.003906 21.8125-71.890625-13.703124-25.886719-45.71875-35.882812-71.714843-22.386719 2.132812 6.671875 3.210937 13.636719 3.199219 20.640625.027343 20.429688-9.320313 39.742188-25.359376 52.398438zm0 0"/><path d="m8.105469 312.207031v176h288v-176c0-70.691406-57.308594-128-128-128h-32c-70.695313 0-128 57.308594-128 128zm104-72 40-32 40 32-24 32 32 24-48 168-48-168 32-24zm0 0"/></g><path d="m366.832031 198.441406c27.328125-10.878906 43.074219-39.632812 37.523438-68.515625-5.550781-28.882812-30.839844-49.75-60.25-49.71875-6.871094.003907-13.691407 1.175781-20.167969 3.464844-16.5-35.957031-58.210938-52.769531-95.035156-38.296875-17.496094-31.550781-52.464844-49.246094-88.25-44.660156-35.789063 4.589844-65.164063 30.535156-74.132813 65.480468-8.972656 34.945313 4.269531 71.832032 33.417969 93.09375 29.152344 21.257813 68.320312 22.597657 98.855469 3.375 9.929687 11.960938 23.359375 20.511719 38.398437 24.449219-4.332031.203125-8.652344.660157-12.933594 1.359375-17.617187-8.085937-36.773437-12.269531-56.152343-12.265625h-32c-75.078125.085938-135.917969 60.925781-136 136v176c0 4.417969 3.582031 8 8 8h288c4.417969 0 8-3.582031 8-8v-32h72c4.417969 0 8-3.582031 8-8v-32h56c4.417969 0 8-3.582031 8-8v-117.359375c-.09375-46.820312-34.847657-86.335937-81.273438-92.40625zm-46.984375.191406c-14.03125-6.839843-29.316406-10.738281-44.910156-11.457031 7.144531-1.863281 13.96875-4.800781 20.238281-8.703125 6.75 8.925782 15.816407 15.824219 26.214844 19.953125-.488281.0625-1.03125.125-1.542969.183594zm69.601563-57.066406c-.03125 19.519532-12.542969 36.828125-31.066407 42.976563-18.523437 6.148437-38.90625-.242188-50.597656-15.871094 14.691406-14.046875 22.988282-33.496094 22.957032-53.824219-.058594-5.386718-.699219-10.75-1.902344-16 4.894531-1.757812 10.0625-2.652344 15.265625-2.640625 25.039062.03125 45.328125 20.320313 45.359375 45.359375zm-309.34375-53.359375c0-39.761719 32.234375-72 72-72 39.761719 0 72 32.238281 72 72 0 39.765625-32.238281 72-72 72-39.746094-.042969-71.957031-32.253906-72-72zm131.375 64.800781c25.835937-23.445312 35.234375-60.027343 23.894531-93.023437 27.878906-10.523437 59.222656 1.515625 72.882812 27.996094 13.664063 26.484375 5.3125 59.003906-19.421874 75.621093-24.738282 16.621094-58 12.066407-77.355469-10.59375zm76.625 327.199219h-272v-168c.074219-66.242187 53.753906-119.925781 120-120h32c17.886719-.039062 35.550781 3.957031 51.679687 11.695313 17.070313 8.179687 31.996094 20.234375 43.582032 35.203125 16.125 20.949219 24.828124 46.664062 24.738281 73.101562zm80-40h-64v-128c.101562-29.96875-9.765625-59.117187-28.050781-82.863281-7.875-10.054688-17.117188-18.960938-27.453126-26.464844h20.863282c15.839844-.058594 31.457031 3.75 45.496094 11.097656 32.691406 16.972657 53.1875 50.757813 53.144531 87.589844zm64-40h-48v-98.640625c.050781-33.976562-15.003907-66.222656-41.089844-88h11.726563c42.683593.027344 77.292968 34.597656 77.363281 77.28125zm0 0" fill="#004fac"/><path d="m179.304688 270.609375 19.199218-25.601563c2.59375-3.457031 1.972656-8.347656-1.398437-11.046874l-40-32c-2.925781-2.339844-7.078125-2.339844-10 0l-40 32c-3.375 2.699218-3.996094 7.589843-1.402344 11.046874l19.199219 25.601563-25.597656 19.199219c-2.652344 1.988281-3.804688 5.402344-2.898438 8.589844l48 168c.976562 3.441406 4.121094 5.816406 7.699219 5.816406 3.574219 0 6.71875-2.375 7.695312-5.816406l48-168c.90625-3.1875-.246093-6.601563-2.898437-8.589844zm-27.199219 164.480469-38.800781-135.785156 27.597656-20.695313c3.535156-2.652344 4.253906-7.667969 1.601562-11.203125l-19.34375-25.789062 28.945313-23.167969 28.941406 23.199219-19.34375 25.757812c-2.648437 3.535156-1.933594 8.550781 1.601563 11.203125l27.597656 20.695313zm0 0" fill="#004fac"/><path d="m272.105469 344.207031h-56c-4.417969 0-8 3.582031-8 8s3.582031 8 8 8h56c4.417969 0 8-3.582031 8-8s-3.582031-8-8-8zm0 0" fill="#004fac"/></svg>