<?xml version="1.0" encoding="iso-8859-1"?>
<!-- Generator: Adobe Illustrator 19.0.0, SVG Export Plug-In . SVG Version: 6.00 Build 0)  -->
<svg version="1.1" id="Capa_1" xmlns="http://www.w3.org/2000/svg" xmlns:xlink="http://www.w3.org/1999/xlink" x="0px" y="0px"
	 viewBox="0 0 455.431 455.431" style="enable-background:new 0 0 455.431 455.431;" xml:space="preserve">
<path style="fill:#5CA4DA;" d="M405.493,412.764c-69.689,56.889-287.289,56.889-355.556,0c-69.689-56.889-62.578-300.089,0-364.089
	s292.978-64,355.556,0S475.182,355.876,405.493,412.764z"/>
<path style="fill:#6DAFE0;" d="M229.138,313.209c-62.578,49.778-132.267,75.378-197.689,76.8
	c-48.356-82.489-38.4-283.022,18.489-341.333c51.2-52.622,211.911-62.578,304.356-29.867
	C377.049,112.676,330.116,232.142,229.138,313.209z"/>
<g>
	<path style="fill:#FFFFFF;" d="M227.716,52.942c-96.711,0-174.933,78.222-174.933,174.933s78.222,174.933,174.933,174.933
		s174.933-78.222,174.933-174.933C401.227,131.164,324.427,52.942,227.716,52.942z M227.716,370.098
		c-78.222,0-142.222-64-142.222-142.222s64-142.222,142.222-142.222s142.222,64,142.222,142.222S305.938,370.098,227.716,370.098z"
		/>
	<path style="fill:#FFFFFF;" d="M177.938,199.431v76.8h-21.333v-76.8h-27.022v-18.489h73.956v18.489H177.938z"/>
	<path style="fill:#FFFFFF;" d="M304.516,215.076l-25.6,51.2h-12.8l-25.6-51.2v59.733h-21.333v-93.867h28.444l24.178,51.2
		l24.178-51.2h28.444v93.867h-21.333v-59.733H304.516z"/>
</g>
<g>
</g>
<g>
</g>
<g>
</g>
<g>
</g>
<g>
</g>
<g>
</g>
<g>
</g>
<g>
</g>
<g>
</g>
<g>
</g>
<g>
</g>
<g>
</g>
<g>
</g>
<g>
</g>
<g>
</g>
</svg>
